<?xml version="1.0" encoding="UTF-8"?>
<svg id="Layer_1" data-name="Layer 1" xmlns="http://www.w3.org/2000/svg" viewBox="0 0 2918.25 448.5">
  <defs>
    <style>
      .cls-1 {
        fill: #1f589f;
      }
    </style>
  </defs>
  <path class="cls-1" d="M499.59,27.23l-.2-.03c-1.69,0-3.42.05-5.15.14-3.32.19-6.68.21-10.01-.04-1.7-.13-3.39-.19-5.02-.19-.55,0-1.09.07-1.58.21-.4.12-1.08.5-1.08,1.69,0,1.38.66,2.04,1.19,2.34.66.38,1.45.66,2.37.83.85.16,1.73.3,2.62.42.78.12,1.4.38,1.87.81.46.41.77,1.24.94,2.44.18,1.3.28,2.82.28,4.51s-.03,3.46-.09,5.28c-.06,1.83-.09,3.48-.09,4.95v20.26c0,1.84-.19,3.64-.56,5.39-.55,3.14-1.33,5.82-2.32,7.95-.98,2.09-2.25,3.83-3.78,5.15-1.53,1.33-3.43,2.29-5.64,2.86-2.24.59-4.98.88-8.14.88-2.64,0-5.08-.28-7.24-.84-2.1-.54-3.95-1.51-5.48-2.9-1.54-1.39-2.8-3.32-3.73-5.75-.96-2.45-1.56-5.65-1.82-9.49-.12-1.92-.2-3.88-.23-5.84-.04-1.95-.04-3.91-.04-5.86v-17.43c0-.94,0-1.95.04-3.01.03-1.06.1-2.09.18-3.09.09-.98.21-1.9.33-2.71.12-.78.27-1.37.43-1.75.37-.85.98-1.4,1.86-1.66,1.04-.31,2.08-.56,3.1-.74,1.09-.19,2.08-.41,2.96-.68,1.09-.33,1.69-1.13,1.69-2.25,0-.99-.57-1.64-1.62-1.81-.8-.13-1.45-.2-1.99-.2-2.2,0-4.4.1-6.53.29-3.97.35-8.31.39-12.4,0-2-.19-4.05-.29-6.07-.29-1.57,0-2.46.87-2.46,2.38,0,.63.26,1.16.76,1.51.41.3.9.51,1.45.63.51.09,1,.16,1.5.2.49.03.89.04,1.22.04h1.05c1.09,0,1.92.29,2.47.86.6.64,1.03,1.39,1.28,2.27.26.91.42,1.93.45,3.03.03,1.13.05,2.13.05,3.01,0,5.33-.06,10.69-.19,15.9-.13,5.37-.19,10.72-.19,15.92v3.51c0,.58.02,1.16.05,1.74.03.58.08,1.16.14,1.73.39,3.74,1.34,6.87,2.83,9.33,1.49,2.46,3.43,4.46,5.77,5.96,2.32,1.49,5,2.55,7.96,3.16,2.93.61,6.05.91,9.3.91,2.73,0,5.56-.21,8.42-.61,2.86-.42,5.67-1.16,8.37-2.16,3.11-1.24,5.56-3.03,7.26-5.31,1.67-2.25,2.94-4.81,3.77-7.62.83-2.79,1.33-5.75,1.49-8.8.16-3.05.24-5.99.24-8.74,0-1.7-.02-3.42-.05-5.12-.03-1.71-.05-3.41-.05-5.1,0-1.9-.01-4.11-.05-6.64-.03-2.51-.03-4.94,0-7.27.04-2.33.14-4.36.33-6.05.25-2.26.64-2.54.67-2.55.14-.08.53-.24,1.63-.4.92-.13,1.92-.31,2.92-.53,1.05-.23,1.99-.55,2.79-.94,1.2-.61,1.46-1.49,1.46-2.13s-.3-1.46-1.71-1.96"/>
  <path class="cls-1" d="M591.95,27.2c-1.58,0-3.21.05-5,.14-3.62.2-7.48.18-10.96-.05-2.02-.12-4.07-.18-6.09-.18-.6,0-1.16.13-1.68.38-.45.23-.98.72-.98,1.8,0,1.31.73,2.12,2.06,2.28,1.06.13,2.26.21,3.56.24,1.23.03,2.42.2,3.54.54.96.28,1.56.99,1.83,2.18.18.74.28,1.53.33,2.35.02.81.04,1.65.04,2.53,0,4.93.02,9.85.05,14.78.03,4.89.01,9.87-.05,14.77v11.48c.05,1-.2,1.32-.42,1.42-5.15-6.15-9.67-11.5-13.56-16.08-3.94-4.63-7.51-8.8-10.7-12.5-3.19-3.69-6.1-7.07-8.71-10.13-2.62-3.06-5.19-6.11-7.75-9.19-1.19-1.12-2.09-2.09-2.69-2.87-.67-.86-1.25-1.56-1.79-2.13-.58-.61-1.21-1.09-1.88-1.4-.68-.32-1.64-.47-2.84-.47-1.08,0-2.13.03-3.12.09-.92.06-1.91.09-3.04.09-1.46,0-2.78-.02-4.04-.09-1.34-.06-2.7-.09-4.1-.09-.53,0-1.16.17-1.91.53-1.09.52-1.32,1.29-1.32,1.85,0,.72.39,1.31,1.08,1.65.55.28,1.21.48,1.95.61.71.13,1.44.22,2.16.25.66.02,1.18.08,1.53.13,1.37.24,2.45.6,3.2,1.06.74.45,1.32,1,1.7,1.61.4.62.64,1.35.72,2.17.09.89.14,1.84.14,2.83,0,7.54-.06,15.07-.19,22.38l-.38,22.41c0,.87-.03,1.78-.09,2.71-.06.89-.22,1.73-.48,2.49-.26.73-.66,1.36-1.18,1.85-.51.49-1.26.82-2.18.98-.5.07-1.11.11-1.85.14-.83.04-1.56.11-2.22.2-.75.1-1.4.29-1.95.58-.66.35-1.02.96-1.02,1.75,0,.96.5,1.62,1.42,1.88.73.2,1.35.31,1.9.31,2.11,0,4.26-.07,6.38-.19,3.91-.24,7.75-.28,11.66,0,1.87.13,3.73.19,5.53.19.38,0,.79-.07,1.23-.22.61-.21.96-.68.96-1.32,0-.81-.32-1.46-.95-1.93-.54-.4-1.1-.66-1.69-.81-1.76-.39-3.31-.61-4.58-.68-1.13-.05-2.05-.3-2.76-.72-.65-.39-1.15-1.19-1.49-2.36-.36-1.27-.54-3.34-.54-6.18,0-4.73-.03-9.12-.1-13.03-.06-3.75-.11-7.24-.14-10.47-.03-3.21-.08-6.32-.14-9.33-.07-3.12-.1-6.35-.1-9.59,0-.7.04-1.4.12-2.1,1.04.94,1.99,1.99,2.86,3.15,1.12,1.51,2.23,2.9,3.3,4.15,3.85,4.49,7.25,8.47,10.22,11.93l3.18,3.7c3.63,4.24,6.65,7.73,9.04,10.51,2.4,2.79,4.26,4.94,5.58,6.49,1.33,1.56,2.31,2.69,2.94,3.42.63.72,1.02,1.18,1.18,1.36.18.21.31.35.33.37,1.89,2.36,3.64,4.5,5.35,6.54,1.8,2.15,3.62,4.3,5.43,6.43.19.25.43.55.72.91.3.35.58.68.87,1.02.33.35.66.64,1,.88.34.24.7.37,1.07.37.11,0,.21,0,.3-.02,1.07-.17,1.73-.91,1.85-2.08.1-.94.15-1.96.15-3.03,0-6.25.02-11.68.04-16.29.04-4.6.05-8.74.05-12.41v-19.6c0-.62.02-1.61.05-2.92.03-1.32.09-2.68.19-4.1.09-1.37.26-2.7.51-3.95.3-1.46.63-2.12.84-2.41.35-.44.96-.74,1.81-.87,1-.16,1.99-.28,2.99-.38,1.04-.09,1.98-.26,2.8-.49,1.04-.28,1.61-1,1.61-2.03,0-.82-.35-2.19-2.67-2.19"/>
  <path class="cls-1" d="M625.21,49.67c.09-4.03.14-8.01.14-11.85,0-1.12.04-2.1.1-2.89.05-.71.26-1.29.63-1.77.36-.46.96-.81,1.78-1.03.89-.23,2.18-.35,3.82-.35.94,0,1.78-.11,2.48-.31.53-.15,1.41-.63,1.41-2.17,0-.27-.07-.58-.23-.99-.17-.41-.33-.67-.52-.85l-.16-.16h-8.47c-.93,0-1.87.05-2.81.14-.98.1-1.86.14-2.69.14-1.82,0-3.66-.09-5.48-.28-1.83-.19-3.72-.29-5.6-.29h-1.04c-.55,0-1.14.05-1.75.15-.89.14-1.39.74-1.39,1.66,0,1.41.68,2,1.25,2.24.67.28,1.48.46,2.41.51.87.06,1.77.17,2.7.32.84.14,1.54.51,2.09,1.06.22.29.53.94.75,2.39.19,1.26.28,2.37.28,3.42v1.8c0,1.58-.02,3.15-.05,4.72-.03,1.59-.05,3.2-.05,4.84l-.09,33.14v1.99c0,1.16-.08,2.39-.24,3.67-.13,1.13-.47,1.91-1,2.34-.56.51-1.25.85-2.11,1.05-.94.22-1.83.41-2.68.56-.86.16-1.63.36-2.31.6-1.16.41-1.33,1.26-1.33,1.72,0,.99.45,1.71,1.28,2.02.65.23,1.35.37,2.05.37h1.32c1.93,0,3.68-.12,5.2-.34,2.8-.41,6.61-.43,10.27-.04,2.75.29,5.43.43,8.21.14,1.2-.12,1.9-.9,1.9-2.14,0-.49-.2-1.33-1.48-1.69-.73-.19-1.55-.37-2.47-.52-.91-.16-1.85-.33-2.83-.52-.87-.17-1.55-.47-2.04-.9-.64-.6-1.05-1.47-1.19-2.58-.15-1.23-.22-2.35-.22-3.33v-24.14c0-3.98.05-7.96.14-11.82"/>
  <path class="cls-1" d="M717.43,27.2c-1.43,0-2.89.08-4.32.24-3.23.38-6.83.28-10.29-.1-2.1-.22-4.2-.33-6.22-.33-.66,0-1.23.22-1.72.67-.5.46-.75,1.03-.75,1.7,0,1.22.7,2.04,1.96,2.33,1.05.23,2.21.39,3.42.52,1.18.12,2.27.37,3.23.73.48.18,1.13.59,1.13,2.01,0,.18-.09.86-.97,3.57-.66,2.04-1.51,4.53-2.55,7.42-1.04,2.9-2.18,6.04-3.4,9.42-1.23,3.37-2.43,6.58-3.59,9.61-1.17,3.03-2.21,5.72-3.13,8.09-.98,2.55-1.58,4.05-1.92,4.84l-.34.72c-.15.33-.32.65-.52.96-.18.27-.36.5-.58.71-.19-.22-.68-.96-1.77-3.42-.93-2.11-2.05-4.75-3.3-7.84-1.26-3.08-2.6-6.45-4.02-10.08-1.41-3.63-2.75-7.08-4.02-10.37-1.26-3.27-2.36-6.19-3.31-8.75-.95-2.55-1.58-4.29-1.9-5.24-.06-.18-.12-.38-.18-.59-.05-.17-.07-.31-.07-.45,0-.76.29-1.19.92-1.39.83-.27,1.79-.43,2.84-.49,1.13-.06,2.15-.16,3.03-.28,1.59-.23,1.82-1.24,1.82-1.81,0-.73-.3-1.37-.87-1.86-.55-.47-1.18-.7-1.89-.7-2.27,0-4.5.09-6.63.29-3.6.31-7.37.46-11,0-1.5-.19-3.05-.29-4.62-.29h-1.04c-.7,0-1.39.11-2.12.36-1.16.38-1.39,1.16-1.39,1.73,0,1.07.55,1.82,1.55,2.11.78.23,1.66.43,2.71.63,1,.18,2,.46,2.99.83.9.33,1.58,1,2.09,2.08,3.19,6.63,6.11,13.4,8.7,20.17,2.59,6.78,5.21,13.59,7.86,20.41,1.45,3.6,2.94,7.26,4.46,10.98,1.5,3.73,2.99,7.39,4.44,10.98.13.35.34.71.64,1.13.36.49.88.75,1.5.75.71,0,1.19-.18,1.47-.57.19-.27.36-.61.49-1.03,2.3-5.65,4.6-11.42,6.83-17.14,2.15-5.55,4.45-11.32,6.82-17.13,1.42-3.49,2.84-6.87,4.21-10.07,1.43-3.35,2.82-6.75,4.12-10.08.19-.45.45-1.13.81-2.07.34-.9.73-1.82,1.13-2.76.41-.94.79-1.83,1.14-2.66.34-.78.6-1.33.75-1.6.5-.72,1.08-1.19,1.79-1.43.78-.28,1.55-.47,2.28-.6.8-.14,1.5-.34,2.09-.61.52-.25,1.14-.81,1.14-2.14,0-.5-.14-.96-.44-1.38-.33-.46-.84-.71-1.47-.71"/>
  <path class="cls-1" d="M786.98,80.32c-.72,0-1.42.54-2.14,1.64-.61.93-1.26,2.01-1.91,3.21-.65,1.16-1.36,2.36-2.12,3.56-.71,1.12-1.48,1.95-2.28,2.47-.46.29-1.05.51-1.77.68-.76.18-1.59.33-2.48.42-.91.09-1.86.17-2.87.23-1,.07-1.9.1-2.71.1h-2.93c-.57,0-1.51-.02-2.84-.05-1.32-.03-2.68-.08-4.1-.14-1.36-.06-2.7-.16-3.98-.32-1.46-.18-2.15-.41-2.44-.55-.6-.32-1.03-.78-1.32-1.4-.33-.68-.57-1.42-.72-2.23-.15-.82-.24-1.65-.27-2.47-.03-.84-.05-1.6-.05-2.3v-14.95c0-.26-.01-.71-.05-1.36-.03-.59-.01-1.2.04-1.81.06-.6.15-1.15.28-1.62.09-.39.24-.41.33-.43.23-.06.61-.12,1.12-.18.52-.06,1.06-.11,1.62-.14h.18c.51-.03.99-.06,1.43-.1.49-.03.89-.05,1.2-.05,1.2,0,2.58,0,4.13-.05h.57c1.31,0,2.58.09,3.78.28,1.34.21,2.51.61,3.49,1.17.9.52,1.44,1.27,1.66,2.31l.08.18c.15.25.28.72.4,1.36.12.74.26,1.47.43,2.21.16.77.38,1.43.65,2.05.44.99,1.1,1.2,1.57,1.2.63,0,1.12-.22,1.45-.65.29-.37.46-.83.54-1.36.07-.49.09-.99.05-1.5-.03-.46-.04-.84-.04-1.14,0-1.33-.03-2.65-.09-3.95-.07-1.34-.11-2.65-.11-3.9s.04-2.63.11-3.94c.06-1.34.09-2.67.09-4.01,0-.71-.03-1.39-.1-2.05-.09-.93-.72-1.46-1.71-1.46-.89,0-1.35.43-1.58.79-.24.37-.46.74-.65,1.14l-.06.22c-.11,1.71-.56,3.18-1.32,4.35-.74,1.13-1.94,1.83-3.67,2.11-1.66.25-3.38.39-5.13.43-1.76.02-3.5.05-5.2.05-.39,0-.87.02-1.44.05-.55.03-1.13.03-1.7,0-.59-.03-1.1-.1-1.55-.23-.33-.08-.58-.2-.75-.37-.1-.44-.14-1.02-.14-1.72v-2.18c0-2.14,0-4.3-.04-6.45-.04-2.14-.05-4.28-.05-6.43,0-1.06.03-2.18.09-3.33.06-1.1.26-2.12.59-3,.31-.85.79-1.53,1.47-2.07.65-.52,1.65-.78,2.95-.78h4.17c1.26,0,2.6.02,4.01.04,1.4.04,2.77.12,4.08.24,1.36.13,2.52.31,3.54.51,1,.21,1.77.46,2.29.74.78.45,1.37,1.12,1.79,2.05.47,1.03.9,2.08,1.26,3.13.38,1.09.77,2.05,1.16,2.86.61,1.23,1.43,1.5,2.09,1.5h.02c1.2-.14,1.43-1.73,1.5-2.25.15-1.12.24-2.34.24-3.62,0-1.13.02-2.08.05-2.87.03-.8.04-1.49.04-2.06,0-1.11-.13-2.33-.39-3.65-.13-.51-.53-1.16-1.69-1.38-.72-.13-1.46-.19-2.19-.19h-1.04c-4.49,0-8.81.04-12.84.14-4.13.09-8.44.14-12.82.14-2.22,0-4.41-.05-6.5-.14-2.07-.1-4.25-.14-6.46-.14-.57,0-1.26-.02-2.07-.05-.84-.03-1.63,0-2.42.1-.79.11-1.45.28-2.03.51-.76.31-1.17.93-1.17,1.72,0,.64.26,1.75,1.96,2.04.98.15,2.09.31,3.33.47,1.16.15,2.25.48,3.22.98.85.44,1.33,1.36,1.44,2.87.05.28.08.52.08.74v2.56c0,5.11.04,10.2.09,15.25.06,4.89.09,10.01.09,15.24,0,1.58.03,3.43.1,5.56.05,2.11.09,4.2.09,6.28s-.09,3.86-.28,5.52c-.17,1.61-.5,2.77-.94,3.43-.51.72-1.24,1.27-2.2,1.63-1,.39-2.07.72-3.19.98-1.07.25-2.04.5-2.89.76-1.31.42-1.59,1.15-1.59,1.69,0,1.69.98,2.04,1.57,2.1.71.06,1.43.1,2.14.1.96,0,1.91-.03,2.83-.1.9-.06,1.79-.09,2.66-.09h44.69c1.28,0,2.23-.47,2.85-1.39l.08-.2c.45-2.02.81-3.64,1.09-4.87l.81-3.51c.25-1.09.4-1.73.42-1.81.08-.15.16-.4.34-1.16.12-.53.17-.78.19-.92.27-.58.36-1.18.24-1.78-.09-.47-.45-1.24-1.85-1.24"/>
  <path class="cls-1" d="M866.67,97.7c-.68-.14-1.35-.37-2.13-.71-2.54-.54-4.81-1.7-6.75-3.42-1.98-1.75-3.79-3.83-5.39-6.19-1.64-2.38-3.11-4.91-4.41-7.55-1.33-2.68-2.57-5.21-3.75-7.61-1.18-2.44-2.37-4.55-3.54-6.29-.92-1.33-1.86-2.34-2.85-3,1.31-.66,2.65-1.42,4.01-2.29,1.69-1.09,3.26-2.36,4.65-3.78,1.4-1.42,2.54-3.05,3.42-4.83.89-1.82,1.34-3.8,1.34-5.89,0-3.81-.73-6.99-2.16-9.48-1.43-2.47-3.25-4.46-5.38-5.92-2.13-1.45-4.47-2.47-6.93-3.02-2.43-.54-4.74-.83-6.85-.83-2.45,0-4.89.05-7.26.14-2.36.09-4.79.14-7.23.14h-8.24c-.68,0-1.37-.03-2.08-.09-1.53-.12-3-.16-4.34.15-.54.12-1.45.57-1.45,2.13,0,.8.4,1.4,1.13,1.68.56.21,1.27.34,2.1.41.79.06,1.62.12,2.51.19.83.05,1.62.22,2.35.48.68.25,1.23.66,1.66,1.26.44.6.65,1.46.65,2.59,0,5.28-.05,10.65-.14,15.99-.09,5.38-.14,10.76-.14,16.01v19.5c0,1.2-.22,2.14-.66,2.8-.46.68-1.05,1.22-1.75,1.61-.73.41-1.52.69-2.33.83-.88.17-1.71.31-2.49.43-.8.13-1.48.28-2.02.45-1.02.32-1.17,1.05-1.17,1.44,0,1.13.2,1.77.65,2.05.36.23.95.33,1.92.33,1.95,0,3.93-.1,5.88-.29,4.04-.4,8.29-.35,12.43.05,2.23.22,4.54.33,6.88.33,1.35,0,2.33-.1,3.01-.31.51-.15,1.35-.64,1.35-2.17,0-.75-.39-1.3-1.08-1.49-.48-.15-1-.22-1.58-.22-.38,0-.5-.04-.5-.04l-.14-.05c-1.27-.25-2.43-.44-3.45-.57-.94-.12-1.74-.35-2.4-.7-.62-.32-1.09-.83-1.45-1.54-.37-.74-.55-1.9-.55-3.43v-19.51c0-1.85.22-2.51.35-2.74.08-.14.42-.47,1.82-.47,2.14,0,3.95.53,5.38,1.59,1.49,1.09,2.81,2.5,3.93,4.17,1.14,1.7,2.18,3.61,3.07,5.73.91,2.14,1.93,4.25,2.98,6.23,1.92,4.98,4.75,9.26,8.43,12.71,3.69,3.47,8.32,5.71,13.81,6.68.44.07.98.12,1.63.19.64.06,1.3.11,1.95.11,1.65,0,2.83-.14,3.6-.42l.22-.14c.7-.7,1.02-1.29,1.02-1.83,0-.5-.2-1.37-1.55-1.66M839.13,53.05c-.87,1.83-2.08,3.28-3.59,4.32-1.54,1.06-3.39,1.79-5.51,2.18-2.16.4-4.52.6-7,.6-1.07,0-1.85-.08-2.31-.25-.49-.17-.63-.42-.69-.6-.14-.37-.18-.85-.15-1.43.03-.67.05-1.49.05-2.44,0-2.52.02-5.36.09-8.51.06-3.16.09-6.01.09-8.54v-3.22c0-1.36.3-2.4.9-3.07.39-.45,1.39-.99,3.92-.99,2.27,0,4.37.33,6.26.96,1.85.64,3.49,1.58,4.86,2.81,1.36,1.25,2.44,2.79,3.22,4.59.78,1.82,1.18,3.98,1.18,6.4,0,2.93-.45,5.34-1.32,7.18"/>
  <path class="cls-1" d="M911.43,60.71c-2.15-1.38-4.67-2.77-7.49-4.1-2.78-1.31-5.46-2.76-7.95-4.28-2.46-1.5-4.57-3.25-6.26-5.18-1.63-1.88-2.46-4.09-2.46-6.58,0-1.62.3-3.1.9-4.41.6-1.31,1.42-2.42,2.45-3.31,1.04-.89,2.28-1.59,3.69-2.07,1.41-.48,2.92-.72,4.5-.72,1.89,0,3.79.63,5.64,1.89,1.85,1.24,3.27,3.04,4.28,5.4.34.56.6,1.25.79,2.05.19.85.38,1.68.57,2.47.19.8.43,1.52.7,2.14.59,1.34,1.42,1.16,1.99,1.26.66.19,1.44.2,1.98-.33.28-.27.47-.71.65-1.51.25-3.3.35-6.62.28-9.88,0-.68.04-1.49.13-2.4.09-.96.15-1.9.15-2.8s-.07-1.72-.2-2.38c-.25-1.23-1-1.42-1.42-1.42-1.12,0-1.99.35-2.58,1.06-.51.61-.93,1.26-1.25,1.9-.29.58-.58,1.02-.89,1.32-.1.1-.24.2-.85-.13-1.16-.71-2.59-1.42-4.25-2.12-1.7-.72-3.28-1.09-4.67-1.09-2.89,0-5.68.44-8.28,1.3-2.61.87-4.93,2.15-6.87,3.81-1.95,1.66-3.51,3.73-4.65,6.16-1.13,2.44-1.71,5.25-1.71,8.34,0,3.51.85,6.51,2.52,8.9,1.65,2.35,3.71,4.44,6.15,6.2,2.42,1.75,5.07,3.34,7.9,4.73,2.78,1.39,5.39,2.87,7.74,4.42,2.33,1.54,4.31,3.31,5.88,5.27,1.52,1.9,2.29,4.31,2.29,7.12,0,1.93-.31,3.67-.95,5.17-.64,1.51-1.54,2.81-2.67,3.88-1.13,1.08-2.48,1.92-4.01,2.48-1.53.57-3.23.86-5.05.86-2.48,0-4.9-.65-7.2-1.96-2.28-1.29-3.99-3.13-5.07-5.48-.29-.6-.55-1.32-.76-2.15-.22-.88-.42-1.72-.61-2.51-.19-.8-.43-1.52-.7-2.1-.44-.94-1.1-1.14-1.57-1.14-.15,0-.3-.02-.46-.08-.62-.17-1.38-.18-1.95.31-.34.3-.54.79-.62,1.53-.12,1.62-.21,3.13-.24,4.47-.04,1.33-.04,2.83-.04,4.47,0,.67-.05,1.55-.14,2.7-.1,1.2-.15,2.29-.15,3.36s.07,2.07.2,2.88c.23,1.46.99,1.68,1.42,1.68,1.11,0,1.92-.25,2.48-.77.48-.44.9-.96,1.25-1.55.29-.5.6-.94.93-1.34.49-.57,1.85-.53,3.23.03.79.32,1.65.65,2.57.99.9.34,1.89.68,2.97,1.02,1.1.33,2.29.5,3.54.5,3.31-.07,6.41-.57,9.21-1.5,2.81-.94,5.27-2.33,7.31-4.15,2.04-1.81,3.65-4.09,4.78-6.78,1.13-2.69,1.71-5.84,1.71-9.37-.06-3.3-.87-6.44-2.39-9.35-1.53-2.92-3.68-5.32-6.41-7.14"/>
  <path class="cls-1" d="M954.22,49.67c.09-3.88.14-7.87.14-11.85,0-1.12.04-2.1.1-2.89.05-.71.26-1.29.63-1.77.36-.46.96-.81,1.78-1.03.89-.23,2.18-.35,3.82-.35.94,0,1.78-.11,2.48-.31.54-.15,1.42-.63,1.42-2.17,0-.27-.07-.58-.23-.99-.17-.41-.33-.67-.51-.85l-.16-.16h-8.47c-.92,0-1.87.05-2.81.14-.98.1-1.87.14-2.69.14-1.81,0-3.66-.09-5.47-.28-1.83-.19-3.71-.29-5.6-.29h-1.05c-.54,0-1.14.05-1.75.15-.88.14-1.39.74-1.39,1.66,0,1.41.68,2,1.25,2.24.67.28,1.48.46,2.41.51.87.06,1.78.17,2.7.32.82.14,1.55.52,2.09,1.06.22.29.53.94.75,2.39.19,1.26.28,2.37.28,3.42v1.8c0,1.58-.02,3.15-.05,4.72-.04,1.58-.05,3.2-.05,4.84l-.09,33.14v1.99c0,1.16-.08,2.39-.24,3.67-.14,1.13-.47,1.91-1,2.34-.55.5-1.26.85-2.11,1.05-.94.22-1.83.41-2.67.56-.85.16-1.62.35-2.31.6-1.16.41-1.33,1.26-1.33,1.72,0,.99.45,1.71,1.28,2.02.65.23,1.35.37,2.05.37h1.33c1.93,0,3.68-.12,5.2-.34,2.79-.41,6.61-.43,10.27-.04,2.75.29,5.43.43,8.21.14,1.2-.12,1.9-.9,1.9-2.14,0-.49-.19-1.33-1.47-1.69-.72-.19-1.55-.37-2.47-.52-.91-.16-1.85-.33-2.82-.52-.88-.17-1.57-.47-2.05-.9-.64-.6-1.04-1.46-1.18-2.58-.15-1.22-.23-2.34-.23-3.33v-24.14c0-4.05.05-8.03.14-11.82"/>
  <path class="cls-1" d="M1038.58,23.6c-.37,0-.89.15-1.35.89-.24.4-.54.85-.92,1.34-.34.45-.75.9-1.24,1.33-.41.37-.96.6-1.59.71-.92.12-1.88.2-2.82.23-4.12.12-7.96.06-11.65.14-6.24.15-13.57.12-20.37-.05-3.82-.09-7.73-.23-11.62-.43-.83-.05-1.48-.24-1.93-.56-.48-.34-.87-.7-1.15-1.06-.31-.4-.57-.75-.78-1.07-.42-.6-.93-.71-1.27-.71-.98,0-1.75.25-2.3.77-.51.48-.9,1.08-1.15,1.79-.24.67-.39,1.44-.46,2.27l-.02.33c-.06.66-.11,1.29-.16,1.89-.31,3.24-.72,5.78-1.21,7.52-.52,1.83-.78,3.33-.78,4.46,0,.88.22,1.5.68,1.87.43.34,1.01.51,1.79.51.51,0,.96-.44,1.68-1.61.57-.94,1.13-1.95,1.67-3.02.58-1.1,1.1-2.17,1.61-3.18.6-1.19.94-1.66,1.12-1.83,1.18-1.13,2.43-1.89,3.7-2.28,1.3-.4,2.66-.59,4.04-.59h5.88c1.5,0,2.9.11,4.16.32,1.18.2,1.66.51,1.71.72.06.27.1.81.13,1.65.03.85.05,1.42.05,1.74v45.82c0,1.74-.1,3.2-.27,4.36-.18,1.1-.53,2.02-1.04,2.74-.5.69-1.26,1.24-2.26,1.65-1.03.41-2.46.72-4.33.91-.13.04-.44.08-1.09.08-.7,0-1.37.12-2.01.37-.56.22-1.22.75-1.22,2.01,0,1.4.91,1.66,1.32,1.71.55.07,1.09.1,1.62.1,2.28,0,4.57-.08,6.81-.24,4.52-.32,9.7-.29,14.23,0,2.49.16,5.03.24,7.56.24.78,0,1.46-.04,1.97-.1.77-.11,1.16-.84,1.16-2.18,0-.62-.28-1.68-2.17-1.91l-3.75-.42c-1.32-.15-2.6-.51-3.78-1.09-1.09-.51-1.76-1.54-2.05-3.12-.18-.98-.29-1.97-.32-2.94-.03-1-.05-2.01-.05-3,.13-5.59.11-11.22-.05-16.7-.15-5.52-.16-11.11-.04-16.63l.19-11.56c0-1.42.07-2.47.23-3.16.17-.8.38-1.1.5-1.22.14-.15.29-.21.52-.21h.01c.83.08,1.74.07,3.21,0,1.75-.08,4.13-.06,6.51.1,1.41.09,2.74.25,3.96.46,1.21.21,2.25.55,3.1.99.79.4,1.32.92,1.58,1.54.34.87.49,1.79.43,2.78-.06,1.07-.15,2.05-.24,2.96-.1.99-.08,1.79.07,2.45.1.5.49,1.35,1.88,1.35,1.23,0,2.1-.85,2.6-2.5.41-1.41.74-3.1.97-5.02.21-1.88.4-3.85.56-5.85.14-1.9.44-3.46.86-4.63.31-.82.29-1.71-.04-2.65-.24-.74-.9-1.62-2.58-1.62"/>
  <path class="cls-1" d="M1124.42,27.63c-.81-.35-1.7-.52-2.65-.52-1.64,0-3.3.11-4.96.34-2.92.4-6.11.42-9.07.05-1.45-.2-2.95-.29-4.43-.29-.69,0-1.23.05-1.62.16-.64.17-.96.79-.96,1.83,0,1.17.65,1.93,1.81,2.14.91.16,1.91.28,2.95.33,1.03.07,1.94.23,2.75.5.43.13.93.43.93,1.44-.01.06-.11.42-1.05,1.9-.75,1.17-1.69,2.6-2.88,4.34-1.17,1.7-2.44,3.55-3.83,5.53-1.45,2.08-2.76,3.9-4.02,5.57-1.29,1.74-2.42,3.26-3.4,4.54-.96,1.27-1.63,2.09-1.99,2.45-.11.12-.27.27-.48.44-.09.08-.17.14-.24.18-.1-.06-.18-.13-.24-.21-.16-.23-.34-.47-.54-.74-1.64-2.02-3.23-4.13-4.71-6.26-1.52-2.18-3.03-4.37-4.56-6.6-.57-.76-1.28-1.69-2.14-2.8-.8-1.05-1.62-2.19-2.43-3.38-.81-1.18-1.48-2.27-2.06-3.32-.54-.98-.82-1.77-.82-2.37s.23-.88.84-.99c.88-.15,1.82-.24,2.8-.27,1.06-.03,2.06-.13,2.98-.29,1.16-.21,1.8-1,1.8-2.23,0-.52-.33-1.01-.97-1.43-.58-.39-1.07-.57-1.5-.57-2.43,0-4.92.11-7.39.33-4.06.37-8.36.54-12.32-.04-1.73-.26-3.51-.39-5.29-.39-.51,0-.99.04-1.51.1-.34.05-1.15.31-1.15,1.62,0,.95.51,1.63,1.44,1.92.67.22,1.5.44,2.56.68.92.21,1.9.52,2.98.97.96.4,1.77,1.06,2.4,1.97,3.42,4.94,6.85,9.8,10.19,14.45,3.44,4.8,6.87,9.65,10.18,14.44.69.99,1.06,2.07,1.12,3.29.06,1.38.09,3.02.09,4.9v8.33c0,1.13-.02,2.33-.04,3.58-.04,1.33-.1,2.48-.2,3.52-.09,1.06-.22,2.02-.4,2.85-.18.77-.39,1.31-.63,1.58-.6.67-1.43,1.08-2.46,1.24-1.16.18-2.29.36-3.39.52-1.16.16-2.13.44-2.88.82-.54.27-1.37.97-.88,2.56.03.52.33.9.82,1.03.31.07.57.11.79.11,2.28,0,4.58-.12,6.83-.34,4.56-.45,9.41-.41,14.1,0,2.49.22,5.01.34,7.48.34,1.14,0,1.67-.53,1.93-.96.3-.52.45-1.13.45-1.8l-.04-.22c-.33-.8-.92-1.33-1.73-1.53-.65-.15-1.41-.26-2.35-.3-.84-.04-1.71-.08-2.63-.15-.84-.05-1.61-.26-2.29-.6-.65-.33-1.18-.89-1.64-1.71-.46-.83-.69-2.05-.69-3.65v-18.84c0-1.29.36-2.67,1.05-4.11.69-1.45,1.58-2.93,2.68-4.4,1.09-1.47,2.26-2.92,3.47-4.32,1.33-1.54,2.44-2.85,3.39-4.05,2.2-2.84,4.4-5.68,6.58-8.52,2.1-2.74,4.37-5.54,6.75-8.31.63-.74,1.32-1.26,2.04-1.53.77-.3,1.53-.51,2.24-.64.78-.12,1.49-.27,2.15-.44.78-.19,1.36-.63,1.7-1.31.26-.58.32-1.1.15-1.55-.15-.4-.48-.71-.96-.93"/>
  <path class="cls-1" d="M1198.44,52.32c-2.47-2.29-5.36-4.1-8.61-5.36-3.26-1.27-6.75-1.92-10.4-1.92s-7.33.7-10.52,2.06c-3.19,1.36-6,3.28-8.34,5.68-2.34,2.41-4.18,5.29-5.48,8.59-1.28,3.28-1.94,6.88-1.94,10.71s.65,7.39,1.91,10.61c1.28,3.21,3.08,6.04,5.34,8.4,2.27,2.36,5.03,4.23,8.2,5.55,3.18,1.32,6.68,1.99,10.42,1.99s7.4-.74,10.73-2.2c3.32-1.45,6.26-3.44,8.74-5.92,2.47-2.47,4.43-5.4,5.84-8.7,1.42-3.31,2.13-6.85,2.13-10.55,0-3.88-.72-7.47-2.16-10.67-1.44-3.2-3.41-5.98-5.86-8.27M1197.46,76.36c-.04,2.8-.51,5.47-1.39,7.96-.88,2.47-2.27,4.64-4.16,6.46-1.85,1.8-4.44,2.99-7.67,3.57-1.27.24-2.49.35-3.63.35-1.86,0-3.59-.32-5.12-.94-2.5-1-4.65-2.51-6.4-4.48-1.77-1.99-3.21-4.32-4.3-6.92-1.1-2.64-1.87-5.31-2.31-7.93-.49-2.54-.73-5.22-.71-7.97.03-2.72.47-5.3,1.34-7.68.84-2.35,2.22-4.44,4.1-6.18,1.87-1.73,4.47-2.92,7.75-3.53,1.24-.23,2.44-.34,3.57-.34,1.68,0,3.28.26,4.73.76,2.45.86,4.62,2.21,6.43,4.02,1.83,1.83,3.37,4.07,4.55,6.62,1.21,2.58,2.09,5.33,2.62,8.18.45,2.55.65,5.26.6,8.07"/>
  <path class="cls-1" d="M1246.79,46.34c-.07,0-.25,0-.5-.03-.29-.02-.62-.04-1-.04h-1.5c-2.09,0-4.16.01-6.21.04-2.05.02-4.11.03-6.19.03h-10.57c-.37,0-1.03,0-2-.03-.99-.02-2.02-.04-3.12-.04-1.19,0-2.11.01-2.78.04-.71.02-1.26.1-1.67.23-.5.17-.81.41-.98.74-.13.27-.19.57-.19.94,0,.67.35,1.15.95,1.33.4.14.88.21,1.47.24.52.02,1.09.05,1.69.1.54.05,1.04.18,1.5.39.42.2.79.55,1.09,1.02.3.47.45,1.21.45,2.18,0,4.36.04,8.74.11,13.44.06,4.23.1,8.62.1,13.41v2.53c0,.81,0,1.71-.03,2.68-.03.97-.07,1.92-.11,2.85-.04.91-.11,1.73-.2,2.44-.1.87-.22,1.19-.3,1.36-.29.73-.81,1.14-1.7,1.3-.22.07-.59.15-1.14.21-.57.07-1.14.15-1.7.24-.61.11-1.15.27-1.58.5-.82.4-.95,1.03-.95,1.37,0,.79.48,1.33,1.26,1.43.53.07.99.1,1.37.1,1.3,0,2.61-.08,3.86-.24,2.74-.35,5.87-.27,8.77,0,1.68.16,3.39.24,5.1.24h.68c.52,0,1.04-.09,1.53-.27.66-.25,1.03-.74,1.03-1.4,0-.91-.52-1.53-1.47-1.76-.71-.16-1.54-.3-2.47-.38-.87-.1-1.74-.27-2.58-.52-.73-.23-1.25-.69-1.62-1.47,0,0-.06-.11-.08-.53-.03-.42-.05-.89-.11-1.42-.04-.51-.06-1.02-.06-1.55v-3c0-2.05.02-4.06.06-6.06.06-2.01.08-4.03.08-6.08,0-.33.12-.45.25-.54.27-.18.59-.29.99-.35.44-.06.89-.08,1.36-.06.51.02.92.03,1.25.03h1.84c1.03,0,2.19.03,3.44.1,1.22.07,2.13.21,2.74.42.86.23,1.46.66,1.84,1.3.44.75.76,1.5.97,2.23l.61,2.15c.34,1.2,1.1,1.38,1.51,1.38.65,0,1.01-.32,1.19-.59.21-.3.36-.66.44-1.08.08-.43.1-.81.08-1.16-.03-.33-.04-.63-.04-.89,0-1.03-.03-2.02-.1-2.97-.07-.89-.11-1.84-.11-2.89,0-.99.03-1.96.08-2.9.04-.97.07-1.95.07-2.96,0-.29-.04-.65-.12-1.05-.12-.81-.67-1.1-1.15-1.1-.95,0-1.42.47-1.66.87-.25.44-.45.94-.61,1.56-.12.53-.29,1.11-.49,1.73-.17.54-.46,1.01-.85,1.41-.25.24-.64.45-1.15.6-.58.17-1.24.31-2.04.43-.76.1-1.55.17-2.42.19-.85.03-1.67.04-2.43.04h-2.46c-.51,0-.99.02-1.43.04h-.19c-.28,0-.53-.04-.75-.11-.21-.07-.37-.21-.51-.43-.09-.14-.23-.5-.23-1.3,0-2.05,0-4.09-.03-6.14-.02-2.04-.03-4.09-.03-6.13,0-.89.06-1.72.17-2.48.09-.62.46-1.15,1.11-1.59.27-.16.85-.38,2.06-.54,1.09-.14,2.03-.2,2.9-.2h1.5c.49,0,1.15.02,1.99.04.83.02,1.69.06,2.57.13.88.06,1.72.15,2.53.24.77.09,1.36.21,1.78.37.85.31,1.42.81,1.75,1.51.36.8.63,1.6.78,2.38.15.87.33,1.62.52,2.26.25.89.9,1.38,1.85,1.38.58,0,.9-.26,1.08-.5.19-.26.32-.58.38-.94.05-.3.07-.63.07-.99v-.88c0-.35.01-.97.04-1.82.02-.87.02-1.75,0-2.66-.03-.88-.08-1.71-.17-2.44-.09-.68-.28-1.48-1.06-1.63"/>
  <path class="cls-1" d="M1347.31,32.51c.15-1.92.44-3.48.87-4.63.29-.82.28-1.72-.05-2.66-.25-.74-.91-1.62-2.59-1.62-.36,0-.89.16-1.34.89-.25.4-.55.84-.91,1.33-.35.46-.77.9-1.24,1.32-.43.38-.96.61-1.59.72-.94.12-1.89.2-2.84.23-4.11.14-7.96.07-11.64.14-6.24.15-13.57.13-20.38-.05-3.81-.09-7.72-.23-11.62-.42-.83-.05-1.48-.24-1.93-.56-.49-.34-.88-.7-1.16-1.06-.3-.4-.57-.75-.78-1.07-.43-.6-.93-.72-1.28-.72-.97,0-1.74.26-2.29.77-.52.48-.9,1.09-1.14,1.79-.24.67-.4,1.44-.46,2.28-.06.78-.12,1.52-.19,2.22-.31,3.23-.72,5.76-1.21,7.52-.52,1.87-.78,3.33-.78,4.47,0,.88.23,1.49.69,1.86.42.34,1,.51,1.78.51.51,0,.97-.44,1.68-1.61.57-.94,1.14-1.95,1.67-3.01.58-1.11,1.11-2.17,1.62-3.18.6-1.19.94-1.66,1.12-1.83,1.18-1.13,2.42-1.89,3.69-2.28,1.29-.39,2.66-.59,4.04-.59h5.88c1.5,0,2.89.11,4.16.33,1.53.25,1.69.65,1.71.73.06.32.1,1.05.13,1.65.03.85.04,1.42.04,1.74v45.82c0,1.73-.09,3.19-.27,4.36-.17,1.1-.52,2.02-1.04,2.74-.5.69-1.26,1.25-2.25,1.65-1.04.41-2.46.72-4.33.92-.14.04-.44.08-1.09.08-.69,0-1.36.12-2.01.37-.56.22-1.22.74-1.22,2,0,1.41.92,1.67,1.32,1.71.56.06,1.1.1,1.63.1,2.27,0,4.56-.08,6.8-.24,4.52-.33,9.72-.29,14.23,0,2.49.16,5.04.24,7.56.24.79,0,1.47-.03,1.98-.1.77-.11,1.16-.84,1.16-2.18,0-.61-.28-1.68-2.17-1.9l-3.75-.43c-1.32-.15-2.6-.51-3.79-1.09-1.09-.51-1.76-1.53-2.04-3.12-.18-.96-.29-1.94-.33-2.95-.03-1-.04-2.01-.04-2.99.13-5.53.11-11.14-.05-16.71-.16-5.42-.17-11.02-.04-16.63l.18-11.56c0-1.42.08-2.48.23-3.15.17-.8.39-1.11.5-1.23.16-.15.31-.22.53-.22.83.08,1.75.07,3.21,0,1.76-.07,4.14-.06,6.51.1,1.41.1,2.75.25,3.97.46,1.2.22,2.24.55,3.1.99.78.41,1.31.93,1.57,1.55.35.86.49,1.8.43,2.77-.05,1.07-.14,2.05-.23,2.97-.1.99-.09,1.79.06,2.45.1.51.49,1.36,1.89,1.36.84,0,1.98-.44,2.59-2.51.41-1.39.74-3.08.97-5.02.22-1.91.41-3.88.57-5.84"/>
  <path class="cls-1" d="M1417.44,93.17c-.78-.23-1.7-.44-2.7-.63-.98-.18-1.99-.45-3-.83-.89-.32-1.57-1-2.08-2.07-3.21-6.67-6.3-13.44-9.17-20.15-2.86-6.62-5.66-13.5-8.33-20.44-1.45-3.6-2.94-7.26-4.46-10.99-1.51-3.72-2.99-7.38-4.45-10.99-.14-.34-.35-.71-.63-1.12-.37-.49-.89-.75-1.51-.75-.7,0-1.2.19-1.47.58-.2.28-.37.64-.49,1.01-2.34,5.76-4.67,11.46-7.01,17.14-2.33,5.68-4.66,11.4-7,17.15l-4.12,10.07c-1.36,3.32-2.7,6.68-4.03,10.08-.18.44-.46,1.13-.8,2.05-.35.91-.72,1.83-1.13,2.77l-1.18,2.69c-.44,1.01-.67,1.39-.82,1.58-.48.76-1.06,1.25-1.72,1.46-.76.24-1.5.43-2.19.55-.78.14-1.45.34-2.02.62-.48.25-1.07.82-1.07,2.13,0,.5.15.97.44,1.37.23.33.67.73,1.46.73,1.44,0,2.79-.08,4.01-.26,2.84-.37,6.49-.27,9.95.11,2.13.22,4.22.33,6.22.33.65,0,1.23-.23,1.72-.67.48-.45.75-1.04.75-1.7,0-1.22-.7-2.05-1.97-2.32-.99-.22-2.11-.39-3.43-.53-1.17-.12-2.26-.37-3.21-.72-.49-.19-1.14-.6-1.14-2.02,0-.11.06-.58.59-2.49.41-1.46.97-3.26,1.65-5.38.69-2.12,1.53-4.51,2.5-7.12.92-2.46,1.94-5.02,3.05-7.61.73-.14,1.64-.25,2.69-.3,2.5-.13,5.13-.11,7.53-.04,1.24.02,2.24.04,2.99.04h1.81c.99,0,2.03.04,3.06.13.87.09,1.52.34,1.92.74.03.02.13.15.4.77.23.52.5,1.1.81,1.7.94,2.27,1.85,4.49,2.74,6.62.88,2.14,1.67,4.1,2.36,5.86l1.8,4.59c.49,1.25.83,2.2,1.03,2.85l.18.6c.06.18.07.33.07.46,0,1.04-.48,1.31-.9,1.43-.84.24-1.77.39-2.86.45-1.11.06-2.13.15-3.03.28-1.58.22-1.83,1.23-1.83,1.8,0,.74.31,1.38.87,1.86.55.47,1.18.71,1.9.71,2.23,0,4.45-.1,6.63-.28,3.63-.32,7.31-.47,11,0,1.52.18,3.08.28,4.62.28h1.04c.68,0,1.4-.12,2.13-.37,1.2-.4,1.38-1.26,1.38-1.73,0-1.07-.55-1.82-1.55-2.12M1386.78,61.18c-.12.03-.21.06-.29.11-3.89,0-6.89.01-9.04.05-2.17.03-3.8.05-4.86.05h-1.69l2.78-6.68c.83-1.95,1.56-3.72,2.19-5.31.63-1.57,1.26-3.1,1.89-4.57.5-1.19,1.09-2.55,1.75-4.08.14.36.32.82.53,1.43.54,1.52,1.18,3.36,1.94,5.54.77,2.18,1.58,4.51,2.47,7.01.8,2.27,1.58,4.42,2.33,6.46"/>
  <path class="cls-1" d="M1495.14,97.7c-.67-.14-1.35-.37-2.13-.71-2.54-.54-4.8-1.7-6.74-3.42-1.98-1.75-3.79-3.83-5.4-6.19-1.61-2.35-3.09-4.89-4.41-7.55-1.32-2.68-2.57-5.21-3.74-7.61-1.2-2.48-2.36-4.53-3.54-6.29-.93-1.36-1.86-2.35-2.84-3,1.31-.66,2.64-1.42,3.99-2.29,1.69-1.08,3.26-2.35,4.65-3.77,1.4-1.43,2.55-3.05,3.43-4.84.88-1.82,1.33-3.8,1.33-5.89,0-3.81-.73-6.99-2.17-9.48-1.42-2.47-3.23-4.45-5.38-5.92-2.12-1.45-4.45-2.47-6.92-3.02-2.42-.54-4.73-.83-6.85-.83-2.45,0-4.89.05-7.26.14-2.35.09-4.79.14-7.23.14h-8.23c-.67,0-1.37-.03-2.08-.09-1.53-.13-3.01-.17-4.35.15-.54.12-1.44.57-1.44,2.13,0,.8.41,1.41,1.14,1.68.55.21,1.26.34,2.09.41.79.06,1.62.12,2.51.19.83.05,1.63.22,2.36.48.69.25,1.23.66,1.66,1.26.44.59.66,1.46.66,2.59,0,5.28-.05,10.65-.14,15.99-.1,5.35-.15,10.73-.15,16.01v19.5c0,1.2-.22,2.14-.66,2.8-.45.68-1.04,1.22-1.74,1.61-.74.41-1.52.69-2.33.83-.88.17-1.71.31-2.5.43-.8.13-1.48.28-2.02.45-1.01.32-1.17,1.05-1.17,1.44,0,1.13.21,1.77.65,2.05.37.23.95.33,1.92.33,1.96,0,3.93-.1,5.89-.29,4.02-.4,8.28-.36,12.43.05,2.22.22,4.53.33,6.87.33,1.34,0,2.32-.1,3.01-.31.51-.15,1.36-.64,1.36-2.17,0-.75-.4-1.31-1.08-1.49-.48-.15-1.02-.22-1.59-.22-.38,0-.5-.04-.5-.04l-.14-.05c-1.29-.25-2.43-.44-3.45-.57-.94-.12-1.75-.35-2.41-.7-.62-.32-1.09-.83-1.44-1.53-.38-.75-.56-1.9-.56-3.44v-19.51c0-1.84.21-2.51.34-2.74.08-.14.42-.47,1.82-.47,2.14,0,3.95.53,5.39,1.59,1.49,1.1,2.81,2.5,3.93,4.17,1.12,1.68,2.17,3.6,3.07,5.73.91,2.14,1.93,4.25,2.98,6.23,1.92,4.98,4.75,9.26,8.43,12.71,3.69,3.47,8.33,5.71,13.81,6.68.44.07.99.12,1.63.19.65.06,1.3.11,1.95.11,1.65,0,2.83-.14,3.6-.42l.22-.14c.7-.7,1.03-1.29,1.03-1.83,0-.5-.21-1.37-1.56-1.66M1467.6,53.05c-.86,1.83-2.07,3.29-3.58,4.32-1.54,1.06-3.4,1.79-5.51,2.18-2.17.4-4.52.6-6.99.6-1.07,0-1.85-.08-2.32-.25-.49-.17-.63-.42-.69-.6-.14-.35-.19-.83-.16-1.43.03-.67.05-1.49.05-2.44,0-2.52.03-5.36.1-8.51.05-3.16.09-6.01.09-8.54v-3.22c0-1.36.31-2.4.9-3.07.39-.45,1.39-.99,3.92-.99,2.26,0,4.36.33,6.25.96,1.86.64,3.5,1.58,4.86,2.81,1.36,1.25,2.45,2.79,3.23,4.59.78,1.83,1.18,3.98,1.18,6.4,0,2.93-.45,5.34-1.33,7.18"/>
  <path class="cls-1" d="M1557.99,23.6c-.37,0-.9.15-1.35.89-.24.4-.54.85-.92,1.34-.34.45-.75.9-1.24,1.33-.41.37-.95.6-1.59.71-.92.12-1.88.2-2.82.23-4.12.13-7.95.06-11.64.14-6.24.14-13.57.12-20.38-.05-3.81-.09-7.73-.23-11.63-.43-.83-.05-1.47-.24-1.93-.56-.48-.34-.87-.7-1.15-1.06-.31-.4-.57-.75-.79-1.07-.42-.6-.92-.71-1.27-.71-.98,0-1.75.25-2.3.77-.51.48-.89,1.08-1.14,1.79-.24.67-.39,1.44-.45,2.27l-.2,2.22c-.31,3.22-.72,5.76-1.21,7.52-.52,1.86-.78,3.33-.78,4.46,0,.88.23,1.5.7,1.87.42.34,1,.51,1.78.51.5,0,.96-.44,1.68-1.61.57-.96,1.13-1.98,1.67-3.02.52-1,1.01-1.97,1.47-2.89l.14-.29c.6-1.18.94-1.65,1.12-1.83,1.18-1.13,2.43-1.89,3.69-2.28,1.29-.4,2.66-.59,4.05-.59h5.87c1.5,0,2.9.11,4.16.32,1.19.2,1.66.51,1.71.72.06.27.1.81.13,1.65.03.85.05,1.42.05,1.74v45.82c0,1.73-.1,3.2-.28,4.35-.17,1.11-.52,2.04-1.03,2.75-.5.69-1.26,1.24-2.26,1.65-1.03.41-2.46.72-4.33.91-.14.04-.43.08-1.08.08-.69,0-1.37.12-2.02.37-.55.22-1.21.74-1.21,2.01,0,1.4.92,1.66,1.32,1.71.55.07,1.09.1,1.62.1,2.28,0,4.56-.08,6.81-.24,4.52-.32,9.7-.29,14.22,0,2.5.16,5.04.24,7.57.24.79,0,1.47-.04,1.97-.1.77-.11,1.16-.84,1.16-2.18,0-.62-.28-1.68-2.17-1.91l-3.74-.42c-1.33-.15-2.61-.51-3.79-1.09-1.09-.51-1.76-1.54-2.05-3.12-.18-.98-.29-1.97-.32-2.94-.03-1-.05-2.01-.05-3,.12-5.59.11-11.2-.04-16.7-.17-5.4-.18-11-.05-16.63l.19-11.56c0-1.42.08-2.48.22-3.16.18-.79.39-1.1.51-1.22.14-.15.28-.22.53-.21.83.08,1.76.07,3.2,0,1.76-.08,4.15-.07,6.51.1,1.42.09,2.75.25,3.97.46,1.21.22,2.25.55,3.1.99.79.4,1.31.92,1.57,1.54.35.86.5,1.79.44,2.78-.06,1.06-.14,2.05-.23,2.96-.11.99-.09,1.79.06,2.45.1.5.49,1.35,1.88,1.35,1.23,0,2.1-.85,2.59-2.5.42-1.39.75-3.08.98-5.02.2-1.85.39-3.82.56-5.85.16-1.92.45-3.49.87-4.63.3-.82.28-1.71-.05-2.66-.25-.74-.91-1.62-2.58-1.62"/>
  <path class="cls-1" d="M1646.59,27.23l-.2-.03c-1.68,0-3.42.05-5.15.14-3.32.19-6.68.21-10-.04-1.7-.13-3.39-.19-5.02-.19-.56,0-1.09.07-1.58.21-.41.12-1.09.49-1.09,1.69,0,1.38.66,2.04,1.19,2.34.66.38,1.46.66,2.37.83.86.16,1.73.3,2.63.42.77.11,1.4.39,1.87.81.46.41.78,1.24.95,2.44.18,1.32.28,2.84.28,4.51s-.04,3.46-.1,5.28c-.06,1.83-.09,3.48-.09,4.95v20.26c0,1.82-.19,3.63-.56,5.39-.56,3.15-1.34,5.82-2.32,7.95-.98,2.09-2.25,3.83-3.79,5.15-1.53,1.33-3.42,2.29-5.64,2.86-2.23.59-4.97.88-8.13.88-2.65,0-5.09-.28-7.25-.84-2.1-.54-3.95-1.51-5.48-2.9-1.54-1.39-2.79-3.32-3.73-5.75-.95-2.45-1.56-5.65-1.81-9.49-.12-1.89-.2-3.8-.24-5.84-.03-1.95-.04-3.91-.04-5.86v-17.43c0-.94.01-1.95.04-3.01.04-1.06.1-2.09.2-3.09.09-.99.2-1.9.32-2.71.12-.78.27-1.37.43-1.75.38-.85.98-1.4,1.86-1.66,1.05-.31,2.09-.56,3.11-.74,1.09-.19,2.08-.41,2.95-.68,1.11-.33,1.69-1.12,1.69-2.25,0-.99-.57-1.64-1.62-1.81-.8-.13-1.45-.2-1.99-.2-2.2,0-4.4.1-6.54.29-3.96.35-8.29.4-12.39,0-2-.19-4.04-.29-6.06-.29-1.58,0-2.47.87-2.47,2.38,0,.63.26,1.16.76,1.51.41.31.91.51,1.45.63.49.09.99.16,1.5.2.49.03.89.04,1.22.04h1.04c1.09,0,1.93.29,2.47.86.6.64,1.02,1.38,1.28,2.27.26.91.42,1.94.45,3.03.03,1.13.05,2.13.05,3.01,0,5.39-.06,10.73-.19,15.9-.13,5.32-.19,10.68-.19,15.92v3.51c0,.58.01,1.16.05,1.74.03.58.08,1.16.14,1.73.39,3.75,1.35,6.88,2.83,9.33,1.48,2.45,3.43,4.46,5.77,5.96,2.32,1.48,5,2.54,7.96,3.16,2.93.61,6.05.91,9.3.91,2.73,0,5.57-.21,8.42-.61,2.86-.42,5.66-1.16,8.37-2.16,3.12-1.24,5.56-3.03,7.26-5.31,1.66-2.25,2.93-4.81,3.77-7.62.84-2.76,1.34-5.72,1.5-8.8.15-3.07.24-6.01.24-8.74,0-1.7-.02-3.42-.05-5.12-.04-1.71-.05-3.41-.05-5.1,0-1.9-.01-4.11-.04-6.64-.04-2.51-.04-4.94,0-7.27.03-2.31.14-4.34.32-6.05.25-2.26.64-2.54.68-2.56.1-.06.48-.23,1.62-.39.93-.13,1.92-.31,2.93-.53,1.06-.23,1.99-.55,2.79-.94,1.21-.61,1.46-1.49,1.46-2.13s-.31-1.46-1.71-1.96"/>
  <polygon class="cls-1" points="443.25 348.28 454.79 348.28 454.79 203.55 443.25 203.55 443.25 348.28 443.25 348.07 443.25 348.28"/>
  <path class="cls-1" d="M492.71,348.28h11.13v-80.82c4.4-4.95,9.48-8.93,15.26-11.96,5.64-2.89,10.93-4.33,15.88-4.33,3.02,0,5.77.48,8.25,1.44,2.47.82,4.4,1.99,5.77,3.5,1.65,1.92,2.89,4.19,3.71,6.8.82,2.61,1.24,6.32,1.24,11.13v74.22h11.54v-79.99c0-2.75-.34-5.36-1.03-7.83-.82-2.47-1.85-4.67-3.09-6.6-2.06-3.85-5.15-6.87-9.28-9.07-4.12-2.2-8.93-3.3-14.43-3.3-6.05,0-11.89,1.44-17.52,4.33-5.77,2.89-11.27,7.08-16.49,12.58-.14-4.67-.62-8.52-1.44-11.54-.83-3.02-1.38-4.81-1.65-5.36l-11.13,2.89c.83,1.65,1.65,4.12,2.47,7.42.82,3.3,1.24,7.83,1.24,13.61v83.09-.21h-.41Z"/>
  <path class="cls-1" d="M627.95,350.75c11.41-.14,20.41-3.16,27.01-9.07,6.6-5.77,9.97-13.61,10.1-23.5,0-7.15-2.13-13.13-6.39-17.94-4.4-4.81-11.34-8.18-20.82-10.1l-13.61-2.89c-5.91-1.24-10.31-3.3-13.2-6.19-2.89-3.02-4.33-7.01-4.33-11.96,0-5.77,1.92-10.45,5.77-14.02,3.85-3.57,9.48-5.43,16.91-5.57,4.67,0,9.14.69,13.4,2.06,4.26,1.37,8.32,3.16,12.16,5.36l4.54-8.45c-4.12-2.47-8.8-4.4-14.02-5.77-5.22-1.51-10.65-2.27-16.29-2.27-10.86.14-19.38,2.96-25.57,8.45-6.18,5.5-9.35,12.71-9.48,21.65,0,7.42,2.2,13.47,6.6,18.14,4.4,4.67,10.72,7.83,18.97,9.48l13.2,2.47c6.87,1.51,11.82,3.92,14.84,7.22,3.02,3.3,4.54,7.42,4.54,12.37,0,6.46-2.13,11.61-6.39,15.46-4.4,3.85-10.45,5.77-18.14,5.77-6.05,0-11.82-.82-17.32-2.47-5.5-1.65-10.65-3.99-15.46-7.01l-4.54,8.45c4.95,3.16,10.58,5.64,16.91,7.42,6.32,1.79,12.85,2.68,19.59,2.68v-.21l1.03.41Z"/>
  <path class="cls-1" d="M714.94,351.16c3.3,0,6.32-.27,9.07-.82,2.75-.55,5.22-1.37,7.42-2.47l-1.65-7.42c-1.37.69-2.96,1.24-4.74,1.65-1.65.41-3.71.62-6.19.62-5.22,0-8.93-1.44-11.13-4.33-2.2-2.89-3.3-7.22-3.3-12.99v-72.98h22.68l3.71-8.66h-25.98c0-4.67.14-9.07.41-13.19.27-4.12.55-7.63.83-10.51.27-3.02.55-4.95.82-5.77l-12.16,2.47c-.27.82-.55,2.68-.82,5.57-.28,3.02-.55,6.46-.83,10.31-.28,3.85-.41,7.63-.41,11.34h-13.61v8.66h13.61v76.08c0,4.81.69,8.86,2.06,12.16,1.38,3.3,3.44,5.77,6.19,7.42,1.65,1.1,3.57,1.99,5.77,2.68,2.2.82,4.74,1.24,7.63,1.24v-.21l.62-.82Z"/>
  <path class="cls-1" d="M754.1,348.28h11.96v-107.21l-11.96,1.86v105.15-.21.41ZM760.29,219.21c2.47,0,4.61-.89,6.39-2.68,1.79-1.65,2.68-3.78,2.68-6.39,0-2.75-.89-4.95-2.68-6.6-1.79-1.65-3.92-2.47-6.39-2.47-2.61,0-4.81.89-6.6,2.68-1.79,1.65-2.68,3.78-2.68,6.39s.89,4.74,2.68,6.39c1.79,1.79,3.99,2.68,6.6,2.68Z"/>
  <path class="cls-1" d="M825.42,351.16c3.3,0,6.32-.27,9.07-.82,2.75-.55,5.22-1.37,7.42-2.47l-1.65-7.42c-1.37.69-2.95,1.24-4.74,1.65-1.65.41-3.71.62-6.18.62-5.22,0-8.93-1.44-11.13-4.33-2.2-2.89-3.3-7.22-3.3-12.99v-72.98h22.68l3.71-8.66h-25.98c0-4.67.14-9.07.41-13.19.28-4.12.55-7.63.83-10.51.27-3.02.55-4.95.82-5.77l-12.16,2.47c-.27.82-.55,2.68-.82,5.57-.28,3.02-.55,6.46-.83,10.31-.27,3.85-.41,7.63-.41,11.34h-13.61v8.66h13.61v76.08c0,4.81.69,8.86,2.06,12.16,1.38,3.3,3.44,5.77,6.19,7.42,1.65,1.1,3.57,1.99,5.77,2.68,2.2.82,4.74,1.24,7.63,1.24v-.21l.62-.82Z"/>
  <path class="cls-1" d="M934.68,351.58l7.63-7.63c-1.92-2.06-3.3-4.67-4.12-7.83-.83-3.3-1.24-8.04-1.24-14.23v-80.41l-11.55,2.06v78.55c-3.57,6.05-7.97,10.72-13.2,14.02-5.22,3.3-10.58,4.95-16.08,4.95-2.89,0-5.57-.41-8.04-1.24-2.47-.82-4.54-1.92-6.18-3.3-2.2-1.79-3.85-4.05-4.95-6.8-1.1-2.89-1.65-6.53-1.65-10.93v-77.52l-11.13,2.47v78.35c0,3.44.41,6.53,1.24,9.28.69,2.89,1.72,5.29,3.09,7.22,2.06,3.85,5.15,6.87,9.28,9.07,4.12,2.2,9.21,3.3,15.26,3.3,6.87,0,13.2-1.44,18.97-4.33,5.77-2.75,10.72-6.87,14.84-12.37.55,4.12,1.51,7.49,2.89,10.1,1.37,2.61,3.3,5.02,5.77,7.22v-.21l-.83.21Z"/>
  <path class="cls-1" d="M995.9,351.16c3.3,0,6.33-.27,9.07-.82,2.75-.55,5.23-1.37,7.43-2.47l-1.65-7.42c-1.38.69-2.96,1.24-4.74,1.65-1.65.41-3.72.62-6.19.62-5.22,0-8.93-1.44-11.13-4.33-2.2-2.89-3.3-7.22-3.3-12.99v-72.98h22.68l3.71-8.66h-25.98c0-4.67.14-9.07.41-13.19.27-4.12.55-7.63.83-10.51.27-3.02.55-4.95.82-5.77l-12.16,2.47c-.27.82-.55,2.68-.82,5.57-.28,3.02-.55,6.46-.83,10.31-.28,3.85-.41,7.63-.41,11.34h-13.61v8.66h13.61v76.08c0,4.81.69,8.86,2.06,12.16,1.37,3.3,3.44,5.77,6.18,7.42,1.65,1.1,3.57,1.99,5.77,2.68,2.2.82,4.74,1.24,7.63,1.24v-.21l.62-.82Z"/>
  <path class="cls-1" d="M1041.66,287.25c.69-12.51,3.57-21.85,8.66-28.04,5.22-6.32,11.82-9.48,19.79-9.48,4.95,0,9.21.96,12.79,2.89,3.57,2.06,6.39,4.74,8.45,8.04,1.65,2.75,2.95,6.25,3.92,10.51.96,4.12,1.44,9.35,1.44,15.67h-55.26v-.21l.21.62ZM1073.41,350.34c6.74,0,12.85-1.03,18.35-3.09,5.64-1.92,10.65-4.81,15.05-8.66l-4.53-7.42c-3.58,3.3-7.56,5.77-11.96,7.42-4.4,1.51-9.21,2.27-14.43,2.27-5.91,0-11.21-1.1-15.88-3.3s-8.45-5.43-11.34-9.69c-1.92-3.02-3.5-6.73-4.74-11.13-1.24-4.4-1.93-9.41-2.06-15.05v-5.36h67.62v-2.47c0-7.7-.41-14.16-1.24-19.38-.82-5.22-2.13-9.62-3.91-13.19-1.79-3.57-4.06-6.74-6.81-9.48-3.16-3.16-6.94-5.7-11.34-7.63-4.39-1.93-9.41-2.89-15.05-2.89-6.32,0-11.95,1.24-16.9,3.71-4.95,2.47-9.21,5.84-12.79,10.1-4.12,4.95-7.21,10.65-9.27,17.11-2.06,6.32-3.1,13.95-3.1,22.88,0,11.13,1.72,20.82,5.16,29.07,3.44,8.25,8.45,14.71,15.05,19.38,6.6,4.67,14.71,7.01,24.33,7.01l-.21-.21Z"/>
  <path class="cls-1" d="M1222.45,341.27c-5.77-.14-10.72-1.44-14.85-3.92-4.12-2.47-7.21-5.36-9.27-8.66-2.2-3.57-3.92-8.38-5.16-14.43-1.37-6.05-2.06-12.85-2.06-20.41,0-6.6.55-12.44,1.65-17.52,1.1-5.09,2.61-9.42,4.54-12.99,1.92-3.57,4.94-6.6,9.07-9.07,4.12-2.47,9.07-3.78,14.84-3.92,5.77,0,10.86,1.31,15.26,3.92,4.4,2.61,7.69,6.05,9.89,10.31,1.93,3.85,3.44,8.52,4.54,14.02s1.65,11.96,1.65,19.38c0,6.05-.41,11.13-1.24,15.26-.82,4.12-2.2,8.25-4.12,12.37-1.93,4.67-4.95,8.52-9.07,11.55-4.13,3.02-9.35,4.54-15.67,4.54v-.41ZM1222.45,350.75c8.24,0,15.32-1.79,21.23-5.36,6.05-3.57,10.72-8.25,14.02-14.02,2.48-4.4,4.4-9.48,5.78-15.26,1.37-5.64,2.06-12.03,2.06-19.17,0-8.25-.83-15.53-2.48-21.85-1.65-6.32-3.98-11.82-7.01-16.49-3.02-4.81-7.35-9-12.98-12.58-5.64-3.57-12.79-5.43-21.45-5.57-7.42.14-13.88,1.58-19.38,4.33-5.49,2.89-9.89,6.53-13.19,10.93-3.58,4.67-6.32,10.31-8.25,16.91-1.92,6.6-2.88,14.02-2.88,22.27s.82,15.12,2.47,21.44c1.65,6.32,4.05,11.82,7.22,16.49,3.29,5.09,7.76,9.28,13.4,12.58,5.63,3.3,12.5,5.02,20.61,5.15l.83.21Z"/>
  <path class="cls-1" d="M1296.24,348.28h11.96v-96.49h24.33l3.3-8.66h-27.83v-19.38c0-6.05,1.3-10.72,3.91-14.02,2.62-3.3,6.4-4.95,11.34-4.95,2.75,0,5.43.41,8.04,1.24,2.48.82,4.75,1.92,6.81,3.3l4.53-8.25c-2.75-1.79-5.84-3.09-9.27-3.92-3.44-.96-7.08-1.44-10.93-1.44-3.58,0-6.74.55-9.49,1.65-2.74.96-5.22,2.34-7.42,4.12-2.06,1.51-4.05,4.06-5.98,7.63-1.92,3.44-2.95,8.38-3.09,14.84v19.79h-10.1v8.66h10.1v96.49-.21l-.21-.41Z"/>
  <path class="cls-1" d="M1489.2,338.79l-6.6-8.25c-4.67,3.3-9.35,5.77-14.02,7.42-4.67,1.65-9.76,2.47-15.26,2.47-8.24,0-15.67-1.99-22.26-5.98-6.74-3.99-12.24-10.24-16.5-18.76-2.33-4.67-4.19-10.1-5.56-16.29-1.38-6.32-2.07-13.61-2.07-21.85,0-9.07.69-17.18,2.07-24.33,1.37-7.15,3.29-13.33,5.77-18.56,3.71-7.7,8.66-13.54,14.84-17.52,6.05-4.12,13.2-6.18,21.44-6.18,5.5,0,10.59.69,15.26,2.06,4.54,1.51,9,3.92,13.4,7.22l6.39-7.84c-4.94-3.85-10.31-6.74-16.08-8.66s-12.02-2.89-18.76-2.89c-9.35,0-17.8,2.2-25.36,6.6-7.7,4.4-14.09,10.58-19.17,18.56-4.13,6.32-7.29,13.74-9.49,22.27s-3.29,17.73-3.29,27.63c0,10.86,1.3,20.96,3.91,30.31,2.48,9.35,6.46,17.32,11.96,23.92,5.77,7.01,12.1,12.03,18.97,15.05,6.87,3.16,14.29,4.74,22.26,4.74,6.74,0,13.27-1.03,19.59-3.09,6.32-1.92,12.23-4.81,17.73-8.66v-.21l.83.82Z"/>
  <path class="cls-1" d="M1549.18,341.27c-5.77-.14-10.72-1.44-14.84-3.92-4.13-2.47-7.22-5.36-9.28-8.66-2.2-3.57-3.92-8.38-5.16-14.43-1.37-6.05-2.06-12.85-2.06-20.41,0-6.6.55-12.44,1.65-17.52,1.1-5.09,2.61-9.42,4.54-12.99,1.92-3.57,4.94-6.6,9.07-9.07,4.12-2.47,9.07-3.78,14.84-3.92,5.78,0,10.86,1.31,15.26,3.92,4.4,2.61,7.7,6.05,9.9,10.31,1.92,3.85,3.43,8.52,4.53,14.02s1.65,11.96,1.65,19.38c0,6.05-.41,11.13-1.24,15.26-.82,4.12-2.2,8.25-4.12,12.37-1.92,4.67-4.95,8.52-9.07,11.55-4.13,3.02-9.35,4.54-15.67,4.54v-.41ZM1549.18,350.75c8.25,0,15.32-1.79,21.23-5.36,6.05-3.57,10.73-8.25,14.02-14.02,2.48-4.4,4.4-9.48,5.78-15.26,1.37-5.64,2.06-12.03,2.06-19.17,0-8.25-.83-15.53-2.48-21.85-1.64-6.32-3.98-11.82-7-16.49-3.03-4.81-7.36-9-12.99-12.58-5.64-3.57-12.79-5.43-21.45-5.57-7.42.14-13.88,1.58-19.38,4.33-5.49,2.89-9.89,6.53-13.19,10.93-3.57,4.67-6.32,10.31-8.25,16.91-1.92,6.6-2.88,14.02-2.88,22.27s.82,15.12,2.47,21.44c1.65,6.32,4.06,11.82,7.22,16.49,3.3,5.09,7.76,9.28,13.4,12.58,5.63,3.3,12.51,5.02,20.61,5.15l.83.21Z"/>
  <path class="cls-1" d="M1622.56,348.28h10.93v-80.82c4.95-5.5,9.76-9.48,14.43-11.96,4.68-2.61,9.21-3.92,13.61-3.92,3.16,0,5.84.41,8.04,1.24,2.2.82,3.99,2.06,5.36,3.71,1.38,1.65,2.41,3.71,3.09,6.18.55,2.47.83,5.36.83,8.66v76.9h11.54v-79.17c4.95-5.77,9.76-10.24,14.44-13.4,4.81-3.02,9.69-4.54,14.63-4.54,5.91,0,10.24,1.65,12.99,4.95,2.75,3.3,4.13,7.83,4.13,13.61v78.34h11.95v-79.17c0-8.52-2.33-15.26-7.01-20.2-4.53-5.09-10.85-7.7-18.96-7.83-5.78,0-11.55,1.65-17.32,4.95-5.77,3.3-10.93,7.7-15.46,13.19-1.65-5.5-4.68-9.9-9.08-13.19-4.26-3.3-9.55-4.95-15.87-4.95-5.91.14-11.62,1.85-17.11,5.15-5.64,3.3-10.24,7.15-13.82,11.55-.13-4.26-.62-7.9-1.44-10.93-.82-2.89-1.37-4.6-1.65-5.15l-11.13,2.47c.27.55.82,2.47,1.65,5.77.82,3.3,1.3,8.39,1.44,15.26v83.29-.21l-.21.21Z"/>
  <path class="cls-1" d="M1823.77,341.27c-4.81,0-9.62-1.24-14.43-3.71-4.67-2.47-8.93-6.12-12.78-10.93v-59.38c4.12-5.22,8.66-9.14,13.61-11.75,4.94-2.61,10.17-3.92,15.67-3.92,4.39,0,8.52.96,12.37,2.89,3.84,2.06,6.94,4.95,9.27,8.66,2.2,3.57,3.85,8.25,4.95,14.02,1.1,5.77,1.65,12.23,1.65,19.38,0,6.6-.55,12.37-1.65,17.32-1.1,4.95-2.47,9.07-4.12,12.37-2.48,4.53-5.91,8.11-10.31,10.72-4.4,2.47-9.35,3.71-14.84,3.71v-.21l.61.82ZM1785.01,391.78l11.55-2.47v-51.96c3.57,4.12,7.97,7.29,13.19,9.48,5.23,2.2,10.59,3.3,16.09,3.3,6.87,0,13.05-1.65,18.55-4.95,5.5-3.3,10.17-7.97,14.02-14.02,2.75-4.26,4.81-9.28,6.19-15.05,1.37-5.77,2.06-12.85,2.06-21.24,0-9.35-.96-17.32-2.89-23.92-1.92-6.74-4.81-12.44-8.66-17.11-3.43-4.26-7.56-7.49-12.37-9.69-4.81-2.2-9.89-3.3-15.25-3.3-6.05,0-11.76,1.37-17.12,4.12-5.22,2.75-9.89,6.67-14.02,11.75,0-5.09-.13-8.87-.41-11.34-.27-2.47-.55-3.92-.82-4.33l-11.76,2.06c.28.55.69,2.47,1.24,5.77.55,3.3.83,8.52.83,15.67v127.41l-.42-.21Z"/>
  <path class="cls-1" d="M1967.26,351.58l7.63-7.63c-1.93-2.06-3.3-4.67-4.13-7.83-.82-3.3-1.24-8.04-1.24-14.23v-80.41l-11.54,2.06v78.55c-3.57,6.05-7.97,10.72-13.2,14.02-5.22,3.3-10.58,4.95-16.08,4.95-2.88,0-5.56-.41-8.04-1.24-2.47-.82-4.53-1.92-6.18-3.3-2.2-1.79-3.85-4.05-4.95-6.8-1.1-2.89-1.65-6.53-1.65-10.93v-77.52l-11.13,2.47v78.35c0,3.44.41,6.53,1.23,9.28.69,2.89,1.72,5.29,3.1,7.22,2.06,3.85,5.15,6.87,9.27,9.07,4.13,2.2,9.21,3.3,15.26,3.3,6.87,0,13.2-1.44,18.97-4.33,5.77-2.75,10.72-6.87,14.84-12.37.55,4.12,1.51,7.49,2.89,10.1,1.37,2.61,3.3,5.02,5.77,7.22v-.21l-.82.21Z"/>
  <path class="cls-1" d="M2028.48,351.16c3.3,0,6.32-.27,9.07-.82,2.75-.55,5.22-1.37,7.42-2.47l-1.65-7.42c-1.37.69-2.95,1.24-4.74,1.65-1.65.41-3.71.62-6.19.62-5.22,0-8.93-1.44-11.13-4.33-2.2-2.89-3.3-7.22-3.3-12.99v-72.98h22.68l3.71-8.66h-25.98c0-4.67.14-9.07.42-13.19.27-4.12.55-7.63.82-10.51.28-3.02.55-4.95.83-5.77l-12.17,2.47c-.27.82-.55,2.68-.82,5.57-.28,3.02-.55,6.46-.83,10.31-.27,3.85-.41,7.63-.41,11.34h-13.61v8.66h13.61v76.08c0,4.81.69,8.86,2.06,12.16,1.38,3.3,3.44,5.77,6.19,7.42,1.65,1.1,3.57,1.99,5.77,2.68,2.2.82,4.74,1.24,7.63,1.24v-.21l.62-.82Z"/>
  <path class="cls-1" d="M2074.23,287.25c.69-12.51,3.58-21.85,8.66-28.04,5.23-6.32,11.82-9.48,19.8-9.48,4.94,0,9.21.96,12.78,2.89,3.57,2.06,6.39,4.74,8.45,8.04,1.65,2.75,2.96,6.25,3.92,10.51.96,4.12,1.44,9.35,1.44,15.67h-55.25v-.21l.2.62ZM2105.98,350.34c6.74,0,12.86-1.03,18.35-3.09,5.64-1.92,10.66-4.81,15.05-8.66l-4.53-7.42c-3.57,3.3-7.56,5.77-11.96,7.42-4.4,1.51-9.21,2.27-14.43,2.27-5.91,0-11.2-1.1-15.88-3.3-4.67-2.2-8.45-5.43-11.34-9.69-1.92-3.02-3.5-6.73-4.74-11.13-1.23-4.4-1.92-9.41-2.06-15.05v-5.36h67.62v-2.47c0-7.7-.41-14.16-1.23-19.38-.83-5.22-2.13-9.62-3.92-13.19-1.79-3.57-4.05-6.74-6.8-9.48-3.16-3.16-6.94-5.7-11.34-7.63-4.4-1.93-9.42-2.89-15.05-2.89-6.33,0-11.96,1.24-16.91,3.71-4.95,2.47-9.21,5.84-12.78,10.1-4.13,4.95-7.22,10.65-9.28,17.11-2.06,6.32-3.09,13.95-3.09,22.88,0,11.13,1.72,20.82,5.15,29.07,3.44,8.25,8.46,14.71,15.05,19.38,6.6,4.67,14.71,7.01,24.33,7.01l-.21-.21Z"/>
  <path class="cls-1" d="M2170.3,348.28h11.54v-69.48c0-4.12.55-7.42,1.65-9.9,1.1-2.47,3.03-5.02,5.78-7.63,2.74-2.75,5.63-4.81,8.65-6.18,3.03-1.38,6.19-2.06,9.49-2.06.82,0,1.65.07,2.47.21.83.27,1.51.55,2.06.82l4.54-12.37c-.27-.14-.96-.34-2.06-.62-1.1-.27-2.34-.41-3.71-.41-2.89,0-5.84.55-8.87,1.65-3.02,1.1-6.05,2.82-9.07,5.15-2.2,1.65-4.26,3.44-6.18,5.36-1.93,2.06-3.58,4.19-4.95,6.39,0-5.36-.42-9.55-1.24-12.58-.82-3.02-1.44-4.81-1.86-5.36l-11.54,2.89c.41.55,1.03,2.47,1.85,5.77.83,3.3,1.24,8.38,1.24,15.26v82.88-.21l.21.41Z"/>
  <path class="cls-1" d="M2270.88,338.18c6.6,4.26,13.47,7.35,20.62,9.28,7.15,2.06,14.85,3.09,23.09,3.09,6.33,0,12.1-.69,17.32-2.06,5.22-1.37,9.9-3.51,14.02-6.39,5.64-3.85,9.97-8.66,12.99-14.43,3.02-5.77,4.54-12.1,4.54-18.97,0-4.95-.83-9.62-2.48-14.02-1.65-4.4-3.92-8.25-6.8-11.55-3.03-3.3-6.46-6.05-10.31-8.25-3.99-2.2-8.66-4.12-14.02-5.77l-15.67-4.95c-4.4-1.37-8.25-2.89-11.55-4.54-3.29-1.65-5.97-3.44-8.04-5.36-2.2-2.2-3.71-4.81-4.53-7.83-.96-3.02-1.44-6.25-1.44-9.69.13-8.38,3.09-14.91,8.86-19.59,5.77-4.54,13.33-6.8,22.68-6.8,6.32,0,12.09.89,17.32,2.68,5.22,1.79,10.79,4.6,16.7,8.45l5.36-8.66c-5.77-4.12-11.96-7.29-18.56-9.48-6.59-2.2-13.67-3.3-21.23-3.3-8.52,0-16.08,1.58-22.68,4.74-6.6,3.16-11.82,7.63-15.67,13.4-3.85,5.77-5.77,12.64-5.77,20.62,0,4.67.68,9,2.06,12.99,1.37,4.12,3.57,7.83,6.6,11.13,2.61,2.75,5.84,5.09,9.69,7.01,3.84,1.92,8.59,3.78,14.22,5.57l14.64,4.54c3.85,1.1,7.42,2.54,10.72,4.33,3.3,1.65,6.19,3.71,8.66,6.18,2.47,2.34,4.33,5.15,5.57,8.45,1.23,3.3,1.85,7.01,1.85,11.13,0,4.95-.89,9.41-2.68,13.4-1.92,3.85-4.67,7.15-8.25,9.9-3.29,2.47-6.87,4.26-10.72,5.36-3.84,1.1-8.52,1.65-14.02,1.65-7.28,0-14.02-.96-20.2-2.89-6.19-1.92-12.16-4.95-17.94-9.07l-5.36,9.48v-.21l.41.41Z"/>
  <path class="cls-1" d="M2426.94,350.34c6.05,0,11.55-1.1,16.5-3.3,4.95-2.2,9.62-5.64,14.02-10.31l-6.39-7.42c-3.3,3.85-7.01,6.74-11.14,8.66-4.12,1.92-8.45,2.89-12.99,2.89-6.87,0-12.57-1.79-17.11-5.36-4.4-3.57-7.7-8.52-9.9-14.84-2.19-6.32-3.29-13.61-3.29-21.85,0-8.66.75-16.01,2.26-22.06,1.38-6.05,3.44-11,6.19-14.85,2.47-3.71,5.63-6.53,9.48-8.45,3.85-1.92,7.98-2.89,12.37-2.89s8.25.69,11.55,2.06c3.3,1.37,6.73,3.64,10.31,6.8l6.18-8.04c-3.3-3.3-7.14-5.98-11.54-8.04-4.4-2.06-9.76-3.09-16.08-3.09-5.36,0-10.31.96-14.85,2.89-4.53,1.92-8.86,4.88-12.99,8.87-4.4,4.4-7.97,10.03-10.72,16.91-2.75,6.87-4.12,15.94-4.12,27.22,0,7.97.82,14.98,2.47,21.03,1.65,6.05,4.06,11.41,7.22,16.08,3.57,5.22,8.11,9.21,13.61,11.96,5.49,2.75,11.88,4.12,19.17,4.12v-.21l-.21,1.24Z"/>
  <path class="cls-1" d="M2483.22,348.28h11.95v-107.21l-11.95,1.86v105.15-.21.41ZM2489.4,219.21c2.47,0,4.61-.89,6.39-2.68,1.79-1.65,2.68-3.78,2.68-6.39,0-2.75-.89-4.95-2.68-6.6-1.78-1.65-3.92-2.47-6.39-2.47-2.61,0-4.81.89-6.6,2.68-1.78,1.65-2.68,3.78-2.68,6.39s.9,4.74,2.68,6.39c1.79,1.79,3.99,2.68,6.6,2.68Z"/>
  <path class="cls-1" d="M2538.87,287.25c.69-12.51,3.57-21.85,8.66-28.04,5.22-6.32,11.82-9.48,19.79-9.48,4.95,0,9.21.96,12.78,2.89,3.58,2.06,6.39,4.74,8.46,8.04,1.65,2.75,2.95,6.25,3.91,10.51.97,4.12,1.45,9.35,1.45,15.67h-55.26v-.21l.21.62ZM2570.62,350.34c6.73,0,12.85-1.03,18.35-3.09,5.63-1.92,10.65-4.81,15.05-8.66l-4.54-7.42c-3.57,3.3-7.56,5.77-11.95,7.42-4.4,1.51-9.21,2.27-14.44,2.27-5.91,0-11.2-1.1-15.87-3.3s-8.45-5.43-11.34-9.69c-1.93-3.02-3.51-6.73-4.74-11.13-1.24-4.4-1.93-9.41-2.06-15.05v-5.36h67.62v-2.47c0-7.7-.41-14.16-1.24-19.38-.82-5.22-2.13-9.62-3.91-13.19-1.79-3.57-4.06-6.74-6.81-9.48-3.16-3.16-6.94-5.7-11.34-7.63-4.4-1.93-9.41-2.89-15.05-2.89-6.32,0-11.96,1.24-16.9,3.71-4.95,2.47-9.21,5.84-12.79,10.1-4.12,4.95-7.21,10.65-9.27,17.11-2.07,6.32-3.1,13.95-3.1,22.88,0,11.13,1.72,20.82,5.16,29.07,3.43,8.25,8.45,14.71,15.05,19.38,6.6,4.67,14.7,7.01,24.33,7.01l-.21-.21Z"/>
  <path class="cls-1" d="M2634.93,348.28h11.14v-80.82c4.39-4.95,9.48-8.93,15.25-11.96,5.64-2.89,10.93-4.33,15.88-4.33,3.02,0,5.77.48,8.24,1.44,2.48.82,4.4,1.99,5.78,3.5,1.65,1.92,2.88,4.19,3.71,6.8.82,2.61,1.24,6.32,1.24,11.13v74.22h11.54v-79.99c0-2.75-.34-5.36-1.03-7.83-.82-2.47-1.86-4.67-3.09-6.6-2.06-3.85-5.16-6.87-9.28-9.07-4.12-2.2-8.93-3.3-14.43-3.3-6.05,0-11.89,1.44-17.53,4.33-5.77,2.89-11.27,7.08-16.49,12.58-.14-4.67-.62-8.52-1.44-11.54-.83-3.02-1.38-4.81-1.65-5.36l-11.14,2.89c.83,1.65,1.65,4.12,2.48,7.42.82,3.3,1.23,7.83,1.23,13.61v83.09-.21h-.41Z"/>
  <path class="cls-1" d="M2779.65,350.34c6.05,0,11.55-1.1,16.5-3.3,4.94-2.2,9.62-5.64,14.02-10.31l-6.4-7.42c-3.29,3.85-7.01,6.74-11.13,8.66-4.12,1.92-8.45,2.89-12.99,2.89-6.87,0-12.57-1.79-17.11-5.36-4.4-3.57-7.7-8.52-9.9-14.84-2.2-6.32-3.29-13.61-3.29-21.85,0-8.66.75-16.01,2.26-22.06,1.38-6.05,3.44-11,6.19-14.85,2.47-3.71,5.63-6.53,9.48-8.45,3.85-1.92,7.97-2.89,12.37-2.89s8.25.69,11.55,2.06c3.3,1.37,6.73,3.64,10.31,6.8l6.18-8.04c-3.3-3.3-7.15-5.98-11.54-8.04-4.4-2.06-9.76-3.09-16.09-3.09-5.36,0-10.3.96-14.84,2.89s-8.87,4.88-12.99,8.87c-4.4,4.4-7.97,10.03-10.72,16.91-2.75,6.87-4.12,15.94-4.12,27.22,0,7.97.82,14.98,2.47,21.03,1.65,6.05,4.06,11.41,7.22,16.08,3.57,5.22,8.11,9.21,13.6,11.96,5.5,2.75,11.89,4.12,19.18,4.12v-.21l-.21,1.24Z"/>
  <path class="cls-1" d="M2842.52,287.25c.69-12.51,3.58-21.85,8.66-28.04,5.22-6.32,11.82-9.48,19.79-9.48,4.95,0,9.21.96,12.79,2.89,3.57,2.06,6.39,4.74,8.45,8.04,1.65,2.75,2.95,6.25,3.92,10.51.96,4.12,1.44,9.35,1.44,15.67h-55.25v-.21l.2.62ZM2874.27,350.34c6.74,0,12.85-1.03,18.35-3.09,5.64-1.92,10.65-4.81,15.05-8.66l-4.53-7.42c-3.58,3.3-7.56,5.77-11.96,7.42-4.4,1.51-9.21,2.27-14.43,2.27-5.91,0-11.21-1.1-15.88-3.3-4.67-2.2-8.45-5.43-11.34-9.69-1.92-3.02-3.5-6.73-4.74-11.13-1.24-4.4-1.92-9.41-2.06-15.05v-5.36h67.62v-2.47c0-7.7-.41-14.16-1.23-19.38-.83-5.22-2.14-9.62-3.92-13.19-1.79-3.57-4.06-6.74-6.81-9.48-3.16-3.16-6.94-5.7-11.34-7.63-4.39-1.93-9.41-2.89-15.05-2.89-6.32,0-11.95,1.24-16.9,3.71-4.95,2.47-9.21,5.84-12.78,10.1-4.13,4.95-7.22,10.65-9.28,17.11-2.06,6.32-3.09,13.95-3.09,22.88,0,11.13,1.71,20.82,5.15,29.07,3.44,8.25,8.45,14.71,15.05,19.38,6.6,4.67,14.71,7.01,24.33,7.01l-.21-.21Z"/>
  <path class="cls-1" d="M94.79,412.76c.06-2.53.11-5.07.11-7.66,0-.76.01-1.45.06-2.04.02-.29.1-.5.19-.64.04-.06.2-.23.7-.39.34-.1,1.04-.24,2.3-.24.77,0,1.47-.1,2.11-.27,1.21-.35,1.92-1.37,1.92-2.74,0-.68-.32-1.33-.91-1.92l-.47-.5h-6.57c-.67,0-1.38.04-2.1.11-1.91.2-3.67.1-5.01-.09-1.08-.15-2.31-.23-3.66-.23h-.75c-.44,0-.92.04-1.44.13-1.24.18-2.05,1.14-2.05,2.42,0,1.84,1.17,2.53,1.67,2.74.6.25,1.31.4,2.11.46.57.03,1.17.12,1.79.23.33.04.61.18.69.24.01.02.15.27.29,1.16.12.81.18,1.56.18,2.24v1.28c0,1.12-.01,2.22-.03,3.34-.03,1.13-.03,2.29-.03,3.44l-.07,6.23c0,.79-.06,1.61-.17,2.46-.07.65-.23.82-.29.88-.25.21-.55.36-.96.44-.63.15-1.25.29-1.85.39-.7.13-1.3.3-1.82.48-1.12.38-1.8,1.28-1.8,2.39,0,1.23.65,2.22,1.73,2.61.61.23,1.25.34,1.89.34h.94c.73,0,1.36-.03,1.91-.08.53-.04,1.02-.11,1.49-.18.39-.06.81-.11,1.27-.15,1.32-.13,3.37-.06,5.19.13,2.05.22,4.16.3,6.11.1,1.5-.15,2.47-1.23,2.47-2.77,0-1.16-.75-2.09-1.96-2.39-.55-.17-1.17-.29-1.87-.41-.65-.11-1.31-.24-1.99-.37-.41-.06-.7-.2-.86-.34-.11-.11-.28-.29-.36-.7-.11-.58-.19-1.14-.23-1.69v-.88c0-2.55.04-5.07.1-7.58"/>
  <path class="cls-1" d="M138.32,401.56c-1.24-1.38-2.79-2.47-4.57-3.26-2.9-1.29-6.6-1.58-9.86-.65-1.21.36-2.35.79-3.38,1.34-.31.15-.58.31-.88.49.71-1.96,1.58-3.85,2.6-5.65,1.8-3.16,4.13-5.99,6.95-8.42.65-.57,1.29-1.08,1.96-1.58.65-.47,1.32-.93,1.94-1.29.16-.08.46-.22.88-.41.5-.22.96-.43,1.41-.67.52-.29,1-.59,1.41-.93.75-.61,1.12-1.29,1.12-2.04,0-.79-.32-1.49-.92-2.04-.35-.3-.67-.56-.98-.74l-.47-.26-.52.04c-.65.06-1.37.25-2.19.59-.69.27-1.26.53-1.79.77-3.21,1.5-6.25,3.39-9.04,5.64-2.78,2.25-5.27,4.84-7.37,7.68-2.11,2.87-3.78,6.02-4.96,9.37-1.22,3.37-1.82,6.98-1.82,10.7,0,1.92.2,3.82.6,5.65.42,1.86,1.05,3.63,1.91,5.26.86,1.66,1.99,3.16,3.35,4.47,1.37,1.33,3.03,2.42,5,3.27,2.36.98,4.74,1.48,7.1,1.48s4.7-.51,6.74-1.52c2-.99,3.71-2.37,5.15-4.05,1.4-1.68,2.5-3.61,3.28-5.72.8-2.14,1.17-4.38,1.17-6.67,0-2.12-.31-4.11-.95-5.94-.67-1.87-1.63-3.51-2.87-4.88M128.78,424.02c-.88.62-1.93.91-3.26.91-1.57,0-2.8-.37-3.77-1.1-1.04-.81-1.87-1.84-2.48-3.07-.65-1.35-1.1-2.83-1.38-4.38-.27-1.63-.41-3.2-.41-4.67,0-.78.03-1.5.1-2.19l.17-1.7c.31-.34.69-.73,1.12-1.12.59-.56,1.26-1.08,1.97-1.57.69-.46,1.44-.88,2.23-1.22,2.01-.84,4.14-.44,5.57.37.96.58,1.73,1.3,2.34,2.21.63.96,1.12,2.08,1.43,3.33.34,1.3.49,2.64.49,3.98,0,1.26-.15,2.6-.44,4-.27,1.33-.74,2.57-1.37,3.66-.6,1.03-1.37,1.89-2.31,2.56"/>
  <path class="cls-1" d="M170.05,417.54c-1.28-1.22-2.86-2.13-4.67-2.74-.56-.18-1.13-.32-1.73-.43.77-.78,1.52-1.64,2.24-2.56.93-1.17,1.76-2.42,2.43-3.7.75-1.42,1.13-2.74,1.13-3.97,0-1.64-.3-3.09-.93-4.27-.62-1.16-1.42-2.12-2.43-2.88-.98-.74-2.09-1.27-3.29-1.59-2.32-.62-4.83-.7-7.39.34-1.21.48-2.31,1.09-3.32,1.8-1.03.72-1.88,1.5-2.55,2.36-.81,1.05-1.21,2.1-1.1,3.23.1.65.43,1.22.93,1.7.55.47,1.09.57,1.45.57.54,0,1.04-.22,1.51-.69.97-1.09,1.87-1.98,2.69-2.64,1.11-.93,3.47-1.12,5.03.38.74.71,1.12,1.9,1.12,3.59,0,.92-.28,1.86-.84,2.85-.63,1.11-1.43,2.17-2.39,3.17-.98,1.02-2.03,1.95-3.15,2.77-1.14.83-2.18,1.5-3.01,1.97l-1.32.63c-1.59.77-1.84,1.92-1.84,2.54,0,1.66,1.08,2.81,2.67,2.81.61,0,1.23-.26,2.11-.88.45-.29.78-.5,1.14-.66.58-.3,1.11-.45,1.68-.45l.31.03c.93.09,1.82.21,2.65.37.89.18,1.68.53,2.35,1,.7.51,1.28,1.14,1.76,1.87.49.78.88,1.65,1.15,2.57.29.94.42,1.88.42,2.78,0,1.78-.37,3.42-1.07,4.85-.75,1.46-1.74,2.79-3,3.92-1.29,1.17-2.83,2.19-4.57,3.04-1.75.85-3.61,1.56-5.5,2.11-.62.08-1.14.41-1.47.88-.27.38-.46.85-.51,1.34-.08.61.08,1.19.42,1.69.25.35.83.94,1.94.94h.03c2.53-.06,5.16-.63,7.84-1.75,2.64-1.1,5.1-2.59,7.27-4.43,2.21-1.89,4.06-4.08,5.51-6.54,1.48-2.57,2.24-5.3,2.24-8.15,0-1.91-.36-3.73-.99-5.4-.69-1.7-1.66-3.17-2.93-4.4"/>
  <path class="cls-1" d="M209.16,416.96c-.26-.57-.78-1.33-1.95-1.78-1.21-.48-2.46-.1-3.3,1.04l-1.92,2.76c-.47.67-.94,1.35-1.45,2.06-.51.7-.97,1.35-1.38,1.86-.01.01-.3.26-1.52.51-1.21.25-2.51.41-3.92.48-1.24.06-2.42.06-3.55,0,.39-.41.84-.88,1.31-1.39.92-.98,1.89-2.08,2.88-3.3,1.03-1.22,1.99-2.46,2.89-3.74.9-1.28,1.71-2.51,2.38-3.71.73-1.28,1.23-2.42,1.47-3.43,1.08-3.87.72-7.09-1.07-9.55-1.8-2.5-4.64-3.75-8.43-3.75-.71,0-1.4.03-2.09.08-.79.06-1.6.21-2.42.47-.83.28-1.72.72-2.61,1.32-.88.6-1.78,1.42-2.74,2.47-.18.17-.41.47-.72.87l-.68.96c-.32.44-.58.87-.79,1.3-.25.57-.38,1.03-.38,1.49,0,.84.38,1.58,1.06,2.08.74.52,1.67.61,2.49.2.58-.29,1.05-.8,1.48-1.55.19-.35.47-.73.84-1.17.31-.35.75-.67,1.33-.93.38-.2,1.14-.41,2.55-.41,2.53,0,3.23,1.05,3.47,1.4.63.96.57,2.42-.15,4.32-.48,1.16-1.14,2.47-1.93,3.88-.85,1.48-1.8,3.02-2.86,4.58-1.08,1.57-2.24,3.17-3.48,4.76-1.25,1.59-2.48,3.07-3.63,4.36-.68.67-.82,1.38-.82,1.85,0,.41,0,1.68.97,2.44.44.36,1,.55,1.65.62l.48.04c.9,0,1.5-.59,1.87-1.03,1.04,0,2.17-.03,3.42-.04,1.45-.03,2.74-.03,3.85-.03,2.77.08,5.09.28,6.88.55,1.92.29,3.56.5,4.78.59h.27c.98.01,2.04-.67,2.18-2.19.04-.47.13-1.17.25-2.06.13-.86.41-1.97.81-3.3.38-1.28,1.1-2.76,2.13-4.41l.47-.75-.36-.81Z"/>
  <polygon class="cls-1" points="13.24 99.13 146.33 35.76 279.4 99.13 13.24 99.13"/>
  <rect class="cls-1" x="6.91" y="111.78" width="278.8" height="12.68"/>
  <rect class="cls-1" x="6.91" y="308.24" width="76.06" height="38.03"/>
  <rect class="cls-1" x="209.69" y="308.24" width="76.03" height="38.03"/>
  <rect class="cls-1" x="108.33" y="308.24" width="25.33" height="38.03"/>
  <rect class="cls-1" x="159" y="308.24" width="25.33" height="38.03"/>
  <polygon class="cls-1" points="29.09 137.11 32.26 295.57 6.93 295.57 10.08 137.11 29.09 137.11"/>
  <polygon class="cls-1" points="79.81 137.11 82.97 295.57 57.62 295.57 60.78 137.11 79.81 137.11"/>
  <polygon class="cls-1" points="130.49 137.11 133.65 295.57 108.3 295.57 111.47 137.11 130.49 137.11"/>
  <polygon class="cls-1" points="181.17 137.11 184.33 295.57 159 295.57 162.14 137.11 181.17 137.11"/>
  <polygon class="cls-1" points="231.88 137.11 235.04 295.57 209.69 295.57 212.88 137.11 231.88 137.11"/>
  <polygon class="cls-1" points="282.56 137.11 285.73 295.57 260.4 295.57 263.54 137.11 282.56 137.11"/>
  <polygon class="cls-1" points="146.32 4.08 6.92 70.63 6.92 86.44 146.32 19.91 285.72 86.44 285.72 70.63 146.32 4.08"/>
</svg>